<svg xmlns="http://www.w3.org/2000/svg" viewBox="0 0 300 300">
  <!-- Animação de tremor para todo o conteúdo -->
  <defs>
    <filter id="shake">
      <feOffset dx="0" dy="0">
        <animate attributeName="dx" values="0;1;-2;3;-1;2;-2;1;0" dur="0.5s" repeatCount="indefinite"/>
        <animate attributeName="dy" values="0;2;-1;-3;2;1;-1;2;0" dur="0.5s" repeatCount="indefinite"/>
      </feOffset>
    </filter>
  </defs>
  
  <!-- Grupo principal com filtro de tremor -->
  <g filter="url(#shake)">
    <!-- Fundo escuro que representa um data center - REMOVIDO/COMENTADO -->
    <!-- <rect x="0" y="0" width="300" height="300" fill="#121212" rx="5" ry="5"/> -->
    
    <!-- Rack de mineração -->
    <rect x="50" y="60" width="200" height="180" fill="#1E1E1E" stroke="#333" stroke-width="2" rx="3" ry="3"/>
    
    <!-- Unidades de mineração ASICs -->
    <g>
      <!-- ASIC 1 -->
      <rect x="60" y="70" width="180" height="30" fill="#2C2C2C" stroke="#444" stroke-width="1" rx="2" ry="2"/>
      <rect x="65" y="75" width="10" height="20" fill="#444" stroke="#555" stroke-width="0.5"/>
      <rect x="80" y="75" width="150" height="20" fill="#333" stroke="#555" stroke-width="0.5"/>
      <!-- Luzes de status -->
      <circle cx="85" cy="80" r="2" fill="#F00">
        <animate attributeName="opacity" values="1;0.3;1" dur="0.3s" repeatCount="indefinite"/>
      </circle>
      <circle cx="95" cy="80" r="2" fill="#0F0">
        <animate attributeName="opacity" values="1;0.5;1" dur="0.7s" repeatCount="indefinite"/>
      </circle>
      
      <!-- ASIC 2 -->
      <rect x="60" y="110" width="180" height="30" fill="#2C2C2C" stroke="#444" stroke-width="1" rx="2" ry="2"/>
      <rect x="65" y="115" width="10" height="20" fill="#444" stroke="#555" stroke-width="0.5"/>
      <rect x="80" y="115" width="150" height="20" fill="#333" stroke="#555" stroke-width="0.5"/>
      <!-- Luzes de status -->
      <circle cx="85" cy="120" r="2" fill="#F00">
        <animate attributeName="opacity" values="1;0.4;1" dur="0.5s" repeatCount="indefinite"/>
      </circle>
      <circle cx="95" cy="120" r="2" fill="#0F0">
        <animate attributeName="opacity" values="1;0.6;1" dur="0.4s" repeatCount="indefinite"/>
      </circle>
      
      <!-- ASIC 3 -->
      <rect x="60" y="150" width="180" height="30" fill="#2C2C2C" stroke="#444" stroke-width="1" rx="2" ry="2"/>
      <rect x="65" y="155" width="10" height="20" fill="#444" stroke="#555" stroke-width="0.5"/>
      <rect x="80" y="155" width="150" height="20" fill="#333" stroke="#555" stroke-width="0.5"/>
      <!-- Luzes de status -->
      <circle cx="85" cy="160" r="2" fill="#F00">
        <animate attributeName="opacity" values="1;0.2;1" dur="0.6s" repeatCount="indefinite"/>
      </circle>
      <circle cx="95" cy="160" r="2" fill="#0F0">
        <animate attributeName="opacity" values="0.8;1;0.8" dur="0.8s" repeatCount="indefinite"/>
      </circle>
      
      <!-- ASIC 4 -->
      <rect x="60" y="190" width="180" height="30" fill="#2C2C2C" stroke="#444" stroke-width="1" rx="2" ry="2"/>
      <rect x="65" y="195" width="10" height="20" fill="#444" stroke="#555" stroke-width="0.5"/>
      <rect x="80" y="195" width="150" height="20" fill="#333" stroke="#555" stroke-width="0.5"/>
      <!-- Luzes de status -->
      <circle cx="85" cy="200" r="2" fill="#F00">
        <animate attributeName="opacity" values="1;0.3;1" dur="0.4s" repeatCount="indefinite"/>
      </circle>
      <circle cx="95" cy="200" r="2" fill="#0F0">
        <animate attributeName="opacity" values="1;0.7;1" dur="0.9s" repeatCount="indefinite"/>
      </circle>
    </g>
    
    <!-- Ventiladores de resfriamento -->
    <g>
      <!-- Ventilador 1 -->
      <circle cx="210" cy="85" r="10" fill="none" stroke="#666" stroke-width="1"/>
      <path d="M210 75 L216 85 L210 95 L204 85 Z" fill="#666" transform="rotate(0,210,85)">
        <animateTransform attributeName="transform" attributeType="XML" type="rotate" from="0 210 85" to="360 210 85" dur="0.8s" repeatCount="indefinite"/>
      </path>
      
      <!-- Ventilador 2 -->
      <circle cx="210" cy="125" r="10" fill="none" stroke="#666" stroke-width="1"/>
      <path d="M210 115 L216 125 L210 135 L204 125 Z" fill="#666" transform="rotate(90,210,125)">
        <animateTransform attributeName="transform" attributeType="XML" type="rotate" from="0 210 125" to="360 210 125" dur="0.7s" repeatCount="indefinite"/>
      </path>
      
      <!-- Ventilador 3 -->
      <circle cx="210" cy="165" r="10" fill="none" stroke="#666" stroke-width="1"/>
      <path d="M210 155 L216 165 L210 175 L204 165 Z" fill="#666" transform="rotate(45,210,165)">
        <animateTransform attributeName="transform" attributeType="XML" type="rotate" from="0 210 165" to="360 210 165" dur="0.75s" repeatCount="indefinite"/>
      </path>
      
      <!-- Ventilador 4 -->
      <circle cx="210" cy="205" r="10" fill="none" stroke="#666" stroke-width="1"/>
      <path d="M210 195 L216 205 L210 215 L204 205 Z" fill="#666" transform="rotate(135,210,205)">
        <animateTransform attributeName="transform" attributeType="XML" type="rotate" from="0 210 205" to="360 210 205" dur="0.65s" repeatCount="indefinite"/>
      </path>
    </g>
    
    <!-- Bitcoin circulando -->
    <g>
      <circle cx="150" cy="30" r="20" fill="#F7931A">
        <animate attributeName="r" values="20;21;19;20" dur="0.8s" repeatCount="indefinite"/>
      </circle>
      <g fill="white">
        <path d="M150 15 L150 45"/>
        <path d="M158 20 C165 20, 165 30, 158 30 C165 30, 165 40, 158 40"/>
        <path d="M142 20 L158 20"/>
        <path d="M142 30 L158 30"/>
        <path d="M142 40 L158 40"/>
      </g>
      
      <!-- Raios conectando as ASICs ao Bitcoin -->
      <path d="M150 50 L150 70" stroke="#F7931A" stroke-width="1" stroke-dasharray="2,2">
        <animate attributeName="stroke-dasharray" values="2,2;1,3;2,2" dur="0.5s" repeatCount="indefinite"/>
      </path>
      <path d="M150 100 L150 110" stroke="#F7931A" stroke-width="1" stroke-dasharray="2,2">
        <animate attributeName="stroke-dasharray" values="2,2;1,3;2,2" dur="0.6s" repeatCount="indefinite"/>
      </path>
      <path d="M150 140 L150 150" stroke="#F7931A" stroke-width="1" stroke-dasharray="2,2">
        <animate attributeName="stroke-dasharray" values="2,2;1,3;2,2" dur="0.7s" repeatCount="indefinite"/>
      </path>
      <path d="M150 180 L150 190" stroke="#F7931A" stroke-width="1" stroke-dasharray="2,2">
        <animate attributeName="stroke-dasharray" values="2,2;1,3;2,2" dur="0.4s" repeatCount="indefinite"/>
      </path>
    </g>
    
    <!-- Código binário -->
    <g fill="#0F0" font-family="monospace" font-size="8">
      <text x="110" y="83">10110101</text>
      <text x="110" y="123">01001110</text>
      <text x="110" y="163">11010010</text>
      <text x="110" y="203">00111010</text>
    </g>
    
    <!-- Dados de hash rate -->
    <g fill="#0FF" font-family="monospace" font-size="6">
      <text x="135" y="90">62 TH/s</text>
      <text x="135" y="130">58 TH/s</text>
      <text x="135" y="170">64 TH/s</text>
      <text x="135" y="210">60 TH/s</text>
    </g>
  </g>

  <!-- Efeito de eletricidade/faíscas -->
  <g>
    <circle cx="65" cy="95" r="1" fill="#FFF">
      <animate attributeName="opacity" values="0;1;0" dur="0.2s" begin="0.1s" repeatCount="indefinite"/>
    </circle>
    <circle cx="75" cy="175" r="1" fill="#FFF">
      <animate attributeName="opacity" values="0;1;0" dur="0.2s" begin="0.3s" repeatCount="indefinite"/>
    </circle>
    <circle cx="95" cy="215" r="1" fill="#FFF">
      <animate attributeName="opacity" values="0;1;0" dur="0.2s" begin="0.5s" repeatCount="indefinite"/>
    </circle>
    <circle cx="175" cy="155" r="1" fill="#FFF">
      <animate attributeName="opacity" values="0;1;0" dur="0.2s" begin="0.7s" repeatCount="indefinite"/>
    </circle>
    <circle cx="220" cy="125" r="1" fill="#FFF">
      <animate attributeName="opacity" values="0;1;0" dur="0.2s" begin="0.2s" repeatCount="indefinite"/>
    </circle>
  </g>
</svg>